<svg xmlns="http://www.w3.org/2000/svg" xmlns:xlink="http://www.w3.org/1999/xlink" xmlns:lucid="lucid" width="800" height="600"><g transform="translate(-80 -80)" lucid:page-tab-id=".9JvFha2Am0E"><path d="M0 0h1870.87v1322.83H0z" fill="#fff"/><path d="M100 106c0-3.3 2.7-6 6-6h388c3.3 0 6 2.7 6 6v68c0 3.3-2.7 6-6 6H106c-3.3 0-6-2.7-6-6z" stroke="#fff" stroke-width="3" fill="#812494"/><use xlink:href="#a" transform="matrix(1,0,0,1,112,112) translate(0 37.222222222222214)"/><use xlink:href="#b" transform="matrix(1,0,0,1,112,112) translate(20.987654320987648 37.222222222222214)"/><path d="M200 226c0-3.3 2.7-6 6-6h388c3.3 0 6 2.7 6 6v68c0 3.3-2.7 6-6 6H206c-3.3 0-6-2.7-6-6z" stroke="#fff" stroke-width="3" fill="#9e2cb5"/><use xlink:href="#a" transform="matrix(1,0,0,1,212,232) translate(0 37.222222222222214)"/><use xlink:href="#c" transform="matrix(1,0,0,1,212,232) translate(20.987654320987648 37.222222222222214)"/><path d="M280 346c0-3.3 2.7-6 6-6h388c3.3 0 6 2.7 6 6v68c0 3.3-2.7 6-6 6H286c-3.3 0-6-2.7-6-6z" stroke="#fff" stroke-width="3" fill="#b63acf"/><use xlink:href="#a" transform="matrix(1,0,0,1,292,352) translate(0 37.222222222222214)"/><use xlink:href="#d" transform="matrix(1,0,0,1,292,352) translate(20.987654320987648 37.222222222222214)"/><path d="M360 466c0-3.3 2.7-6 6-6h388c3.3 0 6 2.7 6 6v68c0 3.3-2.7 6-6 6H366c-3.3 0-6-2.7-6-6z" stroke="#fff" stroke-width="3" fill="#c25bd7"/><use xlink:href="#a" transform="matrix(1,0,0,1,372,472) translate(0 37.222222222222214)"/><use xlink:href="#e" transform="matrix(1,0,0,1,372,472) translate(20.987654320987648 37.222222222222214)"/><path d="M460 586c0-3.3 2.7-6 6-6h388c3.3 0 6 2.7 6 6v68c0 3.3-2.7 6-6 6H466c-3.3 0-6-2.7-6-6z" stroke="#fff" stroke-width="3" fill="#cf7cdf"/><g><use xlink:href="#a" transform="matrix(1,0,0,1,472,592) translate(0 37.222222222222214)"/><use xlink:href="#f" transform="matrix(1,0,0,1,472,592) translate(20.987654320987648 37.222222222222214)"/></g><defs><path fill="#fff" d="M205 0l-28-72H64L36 0H1l101-248h38L239 0h-34zm-38-99l-47-123c-12 45-31 82-46 123h93" id="g"/><path fill="#fff" d="M117-194c89-4 53 116 60 194h-32v-121c0-31-8-49-39-48C34-167 62-67 57 0H25l-1-190h30c1 10-1 24 2 32 11-22 29-35 61-36" id="h"/><path fill="#fff" d="M141-36C126-15 110 5 73 4 37 3 15-17 15-53c-1-64 63-63 125-63 3-35-9-54-41-54-24 1-41 7-42 31l-33-3c5-37 33-52 76-52 45 0 72 20 72 64v82c-1 20 7 32 28 27v20c-31 9-61-2-59-35zM48-53c0 20 12 33 32 33 41-3 63-29 60-74-43 2-92-5-92 41zm25-158c8-23 27-35 38-54h36v5l-58 49H73" id="i"/><path fill="#fff" d="M24 0v-261h32V0H24" id="j"/><path fill="#fff" d="M24-231v-30h32v30H24zM24 0v-190h32V0H24" id="k"/><path fill="#fff" d="M135-143c-3-34-86-38-87 0 15 53 115 12 119 90S17 21 10-45l28-5c4 36 97 45 98 0-10-56-113-15-118-90-4-57 82-63 122-42 12 7 21 19 24 35" id="l"/><g id="b"><use transform="matrix(0.10493827160493824,0,0,0.10493827160493824,0,0)" xlink:href="#g"/><use transform="matrix(0.10493827160493824,0,0,0.10493827160493824,25.185185185185176,0)" xlink:href="#h"/><use transform="matrix(0.10493827160493824,0,0,0.10493827160493824,46.17283950617282,0)" xlink:href="#i"/><use transform="matrix(0.10493827160493824,0,0,0.10493827160493824,67.16049382716047,0)" xlink:href="#j"/><use transform="matrix(0.10493827160493824,0,0,0.10493827160493824,75.45061728395059,0)" xlink:href="#k"/><use transform="matrix(0.10493827160493824,0,0,0.10493827160493824,83.74074074074072,0)" xlink:href="#l"/><use transform="matrix(0.10493827160493824,0,0,0.10493827160493824,102.6296296296296,0)" xlink:href="#k"/><use transform="matrix(0.10493827160493824,0,0,0.10493827160493824,110.91975308641975,0)" xlink:href="#l"/></g><path fill="#fff" d="M30-248c118-7 216 8 213 122C240-48 200 0 122 0H30v-248zM63-27c89 8 146-16 146-99s-60-101-146-95v194" id="m"/><path fill="#fff" d="M100-194c63 0 86 42 84 106H49c0 40 14 67 53 68 26 1 43-12 49-29l28 8c-11 28-37 45-77 45C44 4 14-33 15-96c1-61 26-98 85-98zm52 81c6-60-76-77-97-28-3 7-6 17-6 28h103" id="n"/><path fill="#fff" d="M118-194c89-4 53 116 60 194h-32v-121c0-31-8-49-39-48C35-167 63-67 58 0H26l-1-190h30c1 10-1 24 2 32 11-22 29-35 61-36zm47-64c-3 23-9 48-36 47-26-1-65-44-74 0H39c4-23 8-48 36-47s64 44 74 0h16" id="o"/><path fill="#fff" d="M100-194c62-1 85 37 85 99 1 63-27 99-86 99S16-35 15-95c0-66 28-99 85-99zM99-20c44 1 53-31 53-75 0-43-8-75-51-75s-53 32-53 75 10 74 51 75" id="p"/><g id="c"><use transform="matrix(0.10493827160493824,0,0,0.10493827160493824,0,0)" xlink:href="#m"/><use transform="matrix(0.10493827160493824,0,0,0.10493827160493824,27.179012345679002,0)" xlink:href="#k"/><use transform="matrix(0.10493827160493824,0,0,0.10493827160493824,35.469135802469125,0)" xlink:href="#l"/><use transform="matrix(0.10493827160493824,0,0,0.10493827160493824,54.358024691358004,0)" xlink:href="#n"/><use transform="matrix(0.10493827160493824,0,0,0.10493827160493824,75.34567901234566,0)" xlink:href="#o"/><use transform="matrix(0.10493827160493824,0,0,0.10493827160493824,96.3333333333333,0)" xlink:href="#p"/></g><path fill="#fff" d="M212-179c-10-28-35-45-73-45-59 0-87 40-87 99 0 60 29 101 89 101 43 0 62-24 78-52l27 14C228-24 195 4 139 4 59 4 22-46 18-125c-6-104 99-153 187-111 19 9 31 26 39 46" id="q"/><path fill="#fff" d="M85-194c31 0 48 13 60 33l-1-100h32l1 261h-30c-2-10 0-23-3-31C134-8 116 4 85 4 32 4 16-35 15-94c0-66 23-100 70-100zm9 24c-40 0-46 34-46 75 0 40 6 74 45 74 42 0 51-32 51-76 0-42-9-74-50-73" id="r"/><path fill="#fff" d="M101-234c-31-9-42 10-38 44h38v23H63V0H32v-167H5v-23h27c-7-52 17-82 69-68v24" id="s"/><path fill="#fff" d="M96-169c-40 0-48 33-48 73s9 75 48 75c24 0 41-14 43-38l32 2c-6 37-31 61-74 61-59 0-76-41-82-99-10-93 101-131 147-64 4 7 5 14 7 22l-32 3c-4-21-16-35-41-35" id="t"/><path fill="#fff" d="M141-36C126-15 110 5 73 4 37 3 15-17 15-53c-1-64 63-63 125-63 3-35-9-54-41-54-24 1-41 7-42 31l-33-3c5-37 33-52 76-52 45 0 72 20 72 64v82c-1 20 7 32 28 27v20c-31 9-61-2-59-35zM48-53c0 20 12 33 32 33 41-3 63-29 60-74-43 2-92-5-92 41" id="u"/><path fill="#fff" d="M100-194c62-1 85 37 85 99 1 63-27 99-86 99S16-35 15-95c0-66 28-99 85-99zM99-20c44 1 53-31 53-75 0-43-8-75-51-75s-53 32-53 75 10 74 51 75zM76-211c8-23 27-35 38-54h36v5l-58 49H76" id="v"/><g id="d"><use transform="matrix(0.10493827160493824,0,0,0.10493827160493824,0,0)" xlink:href="#q"/><use transform="matrix(0.10493827160493824,0,0,0.10493827160493824,27.179012345679002,0)" xlink:href="#p"/><use transform="matrix(0.10493827160493824,0,0,0.10493827160493824,48.16666666666665,0)" xlink:href="#r"/><use transform="matrix(0.10493827160493824,0,0,0.10493827160493824,69.1543209876543,0)" xlink:href="#k"/><use transform="matrix(0.10493827160493824,0,0,0.10493827160493824,77.44444444444443,0)" xlink:href="#s"/><use transform="matrix(0.10493827160493824,0,0,0.10493827160493824,87.93827160493825,0)" xlink:href="#k"/><use transform="matrix(0.10493827160493824,0,0,0.10493827160493824,96.22839506172838,0)" xlink:href="#t"/><use transform="matrix(0.10493827160493824,0,0,0.10493827160493824,115.11728395061728,0)" xlink:href="#u"/><use transform="matrix(0.10493827160493824,0,0,0.10493827160493824,136.1049382716049,0)" xlink:href="#t"/><use transform="matrix(0.10493827160493824,0,0,0.10493827160493824,154.9938271604938,0)" xlink:href="#k"/><use transform="matrix(0.10493827160493824,0,0,0.10493827160493824,163.28395061728392,0)" xlink:href="#v"/><use transform="matrix(0.10493827160493824,0,0,0.10493827160493824,184.27160493827157,0)" xlink:href="#h"/></g><path fill="#fff" d="M127-220V0H93v-220H8v-28h204v28h-85" id="w"/><path fill="#fff" d="M59-47c-2 24 18 29 38 22v24C64 9 27 4 27-40v-127H5v-23h24l9-43h21v43h35v23H59v120" id="x"/><path fill="#fff" d="M177-190C167-65 218 103 67 71c-23-6-38-20-44-43l32-5c15 47 100 32 89-28v-30C133-14 115 1 83 1 29 1 15-40 15-95c0-56 16-97 71-98 29-1 48 16 59 35 1-10 0-23 2-32h30zM94-22c36 0 50-32 50-73 0-42-14-75-50-75-39 0-46 34-46 75s6 73 46 73" id="y"/><g id="e"><use transform="matrix(0.10493827160493824,0,0,0.10493827160493824,0,0)" xlink:href="#w"/><use transform="matrix(0.10493827160493824,0,0,0.10493827160493824,18.783950617283942,0)" xlink:href="#n"/><use transform="matrix(0.10493827160493824,0,0,0.10493827160493824,39.771604938271594,0)" xlink:href="#l"/><use transform="matrix(0.10493827160493824,0,0,0.10493827160493824,58.66049382716047,0)" xlink:href="#x"/><use transform="matrix(0.10493827160493824,0,0,0.10493827160493824,69.1543209876543,0)" xlink:href="#k"/><use transform="matrix(0.10493827160493824,0,0,0.10493827160493824,77.44444444444443,0)" xlink:href="#h"/><use transform="matrix(0.10493827160493824,0,0,0.10493827160493824,98.43209876543207,0)" xlink:href="#y"/></g><path fill="#fff" d="M240 0l2-218c-23 76-54 145-80 218h-23L58-218 59 0H30v-248h44l77 211c21-75 51-140 76-211h43V0h-30" id="z"/><path fill="#fff" d="M210-169c-67 3-38 105-44 169h-31v-121c0-29-5-50-35-48C34-165 62-65 56 0H25l-1-190h30c1 10-1 24 2 32 10-44 99-50 107 0 11-21 27-35 58-36 85-2 47 119 55 194h-31v-121c0-29-5-49-35-48" id="A"/><g id="f"><use transform="matrix(0.10493827160493824,0,0,0.10493827160493824,0,0)" xlink:href="#z"/><use transform="matrix(0.10493827160493824,0,0,0.10493827160493824,31.376543209876534,0)" xlink:href="#u"/><use transform="matrix(0.10493827160493824,0,0,0.10493827160493824,52.36419753086418,0)" xlink:href="#h"/><use transform="matrix(0.10493827160493824,0,0,0.10493827160493824,73.35185185185183,0)" xlink:href="#x"/><use transform="matrix(0.10493827160493824,0,0,0.10493827160493824,83.84567901234566,0)" xlink:href="#n"/><use transform="matrix(0.10493827160493824,0,0,0.10493827160493824,104.8333333333333,0)" xlink:href="#h"/><use transform="matrix(0.10493827160493824,0,0,0.10493827160493824,125.82098765432094,0)" xlink:href="#k"/><use transform="matrix(0.10493827160493824,0,0,0.10493827160493824,134.11111111111106,0)" xlink:href="#A"/><use transform="matrix(0.10493827160493824,0,0,0.10493827160493824,165.4876543209876,0)" xlink:href="#k"/><use transform="matrix(0.10493827160493824,0,0,0.10493827160493824,173.77777777777771,0)" xlink:href="#n"/><use transform="matrix(0.10493827160493824,0,0,0.10493827160493824,194.76543209876536,0)" xlink:href="#h"/><use transform="matrix(0.10493827160493824,0,0,0.10493827160493824,215.753086419753,0)" xlink:href="#x"/><use transform="matrix(0.10493827160493824,0,0,0.10493827160493824,226.24691358024685,0)" xlink:href="#p"/></g></defs></g></svg>