<svg xmlns="http://www.w3.org/2000/svg" xmlns:xlink="http://www.w3.org/1999/xlink" xmlns:lucid="lucid" width="940" height="613.33"><g transform="translate(-360 -79.99999999999997)" lucid:page-tab-id="0_0"><path d="M0 0h1870.87v1322.83H0z" fill="#fff"/><path d="M961.48 227.4c0 70.37-57.04 127.4-127.4 127.4-70.37 0-127.4-57.03-127.4-127.4 0-70.36 57.03-127.4 127.4-127.4 70.36 0 127.4 57.04 127.4 127.4z" stroke="#000" stroke-opacity="0" stroke-width="3" fill="#2a96f4"/><use xlink:href="#a" transform="matrix(1,0,0,1,711.6666666666667,104.99999999999997) translate(28.25195312500003 136.640625)"/><path d="M1280 545.93c0 70.36-57.04 127.4-127.4 127.4-70.37 0-127.4-57.04-127.4-127.4 0-70.37 57.03-127.4 127.4-127.4 70.36 0 127.4 57.03 127.4 127.4z" stroke="#000" stroke-opacity="0" stroke-width="3" fill="#c96bdb"/><use xlink:href="#b" transform="matrix(1,0,0,1,1030.1851851851852,423.5185185185186) translate(50.087890625000014 136.640625)"/><path d="M634.8 545.93c0 70.36-57.03 127.4-127.4 127.4-70.36 0-127.4-57.04-127.4-127.4 0-70.37 57.04-127.4 127.4-127.4 70.37 0 127.4 57.03 127.4 127.4z" stroke="#fff" stroke-width="3" fill="#0069c0"/><use xlink:href="#c" transform="matrix(1,0,0,1,385,423.5185185185186) translate(50.79406250000002 113.67187499999999)"/><use xlink:href="#d" transform="matrix(1,0,0,1,385,423.5185185185186) translate(58.90148437500002 160.54687499999997)"/><path d="M1005 221.3h147.67c3.32 0 6 2.7 6 6v137.25M1005.13 221.3H1000" stroke="#5e5e5e" stroke-width="10" fill="none"/><path d="M1158.67 383.82l-4.63-14.27h9.27z" stroke="#5e5e5e" stroke-width="10" fill="#5e5e5e"/><path d="M995 545.93H695.45M994.87 545.93h5.13" stroke="#5e5e5e" stroke-width="10" fill="none"/><path d="M676.18 545.93l14.27-4.64v9.26z" stroke="#5e5e5e" stroke-width="10" fill="#5e5e5e"/><path d="M500 395V226c0-3.3 2.7-6 6-6h138.55M500 394.87V400" stroke="#5e5e5e" stroke-width="10" fill="none"/><path d="M663.82 220l-14.27 4.64v-9.28z" stroke="#5e5e5e" stroke-width="10" fill="#5e5e5e"/><defs><path fill="#fff" d="M1216-1011c-1 297-202 441-512 441H361V0H169v-1456h537c297-6 510 164 510 445zm-192 2c1-178-126-288-307-289H361v571h345c196 1 318-92 318-282" id="e"/><path fill="#fff" d="M663-916c-163-27-288 18-338 148V0H140v-1082h180l3 125c61-97 147-145 258-145 36 0 63 5 82 14v172" id="f"/><path fill="#fff" d="M584 20C278 26 81-227 91-551c10-320 175-545 491-551 308-5 503 247 494 573-9 322-175 543-492 549zm-2-970c-208 0-305 185-305 421 0 216 106 398 307 398 211 0 307-186 307-420 0-214-109-399-309-399" id="g"/><path fill="#fff" d="M521 20C240 20 96-239 96-550c0-303 147-552 427-552 132 0 235 47 309 140l9-120h169V-26c4 277-183 454-459 452-165-1-334-81-400-187l96-111c79 98 176 147 291 147 180 1 288-109 286-290v-93C750-23 649 20 521 20zm48-965c-209 0-287 178-287 416 0 217 86 392 285 392 117 0 202-53 257-159v-494c-57-103-142-155-255-155" id="h"/><path fill="#fff" d="M561-1102c238-4 403 126 403 351v498c0 99 13 178 38 237V0H808c-11-21-19-59-26-114C696-25 593 20 474 20c-199 0-368-130-365-320 4-251 214-359 490-356h180v-85c-1-135-86-212-229-212-115 0-232 67-233 171H131c20-205 206-316 430-320zM294-326c0 117 90 185 207 185 122 0 239-75 278-162v-222H634c-227 0-340 66-340 199" id="i"/><path fill="#fff" d="M1240-945c-141 0-250 95-250 227V0H804v-709c0-157-77-236-231-236-121 0-204 52-249 155V0H139v-1082h175l5 120c79-93 186-140 321-140 151 0 254 58 309 174 69-98 181-174 345-174 237 0 362 126 362 377V0h-185v-714c-2-159-67-231-231-231" id="j"/><g id="a"><use transform="matrix(0.019531249999999993,0,0,0.019531249999999993,0,0)" xlink:href="#e"/><use transform="matrix(0.019531249999999993,0,0,0.019531249999999993,25.23437499999999,0)" xlink:href="#f"/><use transform="matrix(0.019531249999999993,0,0,0.019531249999999993,38.378906249999986,0)" xlink:href="#g"/><use transform="matrix(0.019531249999999993,0,0,0.019531249999999993,61.19140624999998,0)" xlink:href="#h"/><use transform="matrix(0.019531249999999993,0,0,0.019531249999999993,83.63281249999997,0)" xlink:href="#f"/><use transform="matrix(0.019531249999999993,0,0,0.019531249999999993,96.38671874999997,0)" xlink:href="#i"/><use transform="matrix(0.019531249999999993,0,0,0.019531249999999993,118.14453124999997,0)" xlink:href="#j"/><use transform="matrix(0.019531249999999993,0,0,0.019531249999999993,153.20312499999994,0)" xlink:href="#i"/><use transform="matrix(0.019531249999999993,0,0,0.019531249999999993,174.96093749999994,0)" xlink:href="#f"/></g><path fill="#fff" d="M992-673H361v516h733V0H169v-1456h915v158H361v468h631v157" id="k"/><path fill="#fff" d="M19 279c92 0 127-48 127-150v-1211h185V125c0 208-94 312-283 312-41 0-78-6-113-18V271c21 5 49 8 84 8zm216-1543c-68 0-107-42-108-105 0-61 42-107 108-107 68 0 110 44 110 107s-42 105-110 105" id="l"/><path fill="#fff" d="M599-131c141 0 220-65 285-146l113 88C906-50 770 20 589 20 281 21 93-214 93-545c0-223 93-397 233-485 74-48 154-72 240-72 300 2 449 218 445 537v77H278c0 197 129 357 321 357zm227-509c-3-180-88-310-260-310-170 0-264 140-282 310h542" id="m"/><path fill="#fff" d="M277-555c0 244 77 420 297 424 127 2 249-93 255-210h175C980-127 805 20 574 20 258 20 81-222 92-562c11-319 164-533 481-540 237-5 426 165 431 392H829c-7-133-115-242-256-240-209 4-296 166-296 395" id="n"/><path fill="#fff" d="M491 20c-241-1-355-148-355-398v-704h185v699c0 164 67 246 200 246 141 0 235-53 282-158v-787h185V0H812l-4-107C736-22 630 20 491 20" id="o"/><path fill="#fff" d="M456 20C285 20 205-92 206-268v-671H9v-143h197v-262h185v262h202v143H391v671c-9 125 92 149 207 118V0c-49 13-96 20-142 20" id="p"/><g id="b"><use transform="matrix(0.019531249999999993,0,0,0.019531249999999993,0,0)" xlink:href="#k"/><use transform="matrix(0.019531249999999993,0,0,0.019531249999999993,22.734374999999993,0)" xlink:href="#l"/><use transform="matrix(0.019531249999999993,0,0,0.019531249999999993,32.285156249999986,0)" xlink:href="#m"/><use transform="matrix(0.019531249999999993,0,0,0.019531249999999993,53.47656249999998,0)" xlink:href="#n"/><use transform="matrix(0.019531249999999993,0,0,0.019531249999999993,74.41406249999997,0)" xlink:href="#o"/><use transform="matrix(0.019531249999999993,0,0,0.019531249999999993,96.46484374999997,0)" xlink:href="#p"/><use transform="matrix(0.019531249999999993,0,0,0.019531249999999993,109.53124999999999,0)" xlink:href="#i"/><use transform="matrix(0.019531249999999993,0,0,0.019531249999999993,131.28906249999997,0)" xlink:href="#f"/></g><path fill="#fff" d="M688-137c238 0 323-102 359-325h193c-32 297-228 482-552 482-361 0-569-299-569-680 0-197 8-360 73-497 88-186 257-317 513-319 316-2 509 195 535 488h-193c-31-212-118-330-342-330-272 0-397 224-393 523v141c-3 282 115 517 376 517" id="q"/><path fill="#fff" d="M341 0H156v-1082h185V0zm-91-1264c-68 0-108-42-109-105 0-62 41-107 109-107s110 44 110 107-42 105-110 105" id="r"/><g id="c"><use transform="matrix(0.019531249999999993,0,0,0.019531249999999993,0,0)" xlink:href="#q"/><use transform="matrix(0.019531249999999993,0,0,0.019531249999999993,26.03515624999999,0)" xlink:href="#g"/><use transform="matrix(0.019531249999999993,0,0,0.019531249999999993,48.847656249999986,0)" xlink:href="#f"/><use transform="matrix(0.019531249999999993,0,0,0.019531249999999993,62.38281249999998,0)" xlink:href="#f"/><use transform="matrix(0.019531249999999993,0,0,0.019531249999999993,75.54687499999997,0)" xlink:href="#m"/><use transform="matrix(0.019531249999999993,0,0,0.019531249999999993,96.73828124999997,0)" xlink:href="#h"/><use transform="matrix(0.019531249999999993,0,0,0.019531249999999993,119.17968749999997,0)" xlink:href="#r"/><use transform="matrix(0.019531249999999993,0,0,0.019531249999999993,128.88671874999997,0)" xlink:href="#f"/></g><path fill="#fff" d="M538-131c121 0 232-49 232-156 0-50-20-88-56-117-73-60-334-92-420-143-92-55-162-110-162-238 0-190 192-317 400-317 223 0 414 129 413 338H759c0-108-110-186-227-186-119 0-215 53-215 159 0 45 18 78 53 101 76 52 331 90 416 139 98 57 169 115 169 251C955-92 760 20 538 20c-176 0-314-68-386-174-38-55-57-115-57-179h185c6 129 116 202 258 202" id="s"/><g id="d"><use transform="matrix(0.019531249999999993,0,0,0.019531249999999993,0,0)" xlink:href="#k"/><use transform="matrix(0.019531249999999993,0,0,0.019531249999999993,22.734374999999993,0)" xlink:href="#f"/><use transform="matrix(0.019531249999999993,0,0,0.019531249999999993,36.269531249999986,0)" xlink:href="#f"/><use transform="matrix(0.019531249999999993,0,0,0.019531249999999993,49.414062499999986,0)" xlink:href="#g"/><use transform="matrix(0.019531249999999993,0,0,0.019531249999999993,72.22656249999997,0)" xlink:href="#f"/><use transform="matrix(0.019531249999999993,0,0,0.019531249999999993,85.39062499999997,0)" xlink:href="#m"/><use transform="matrix(0.019531249999999993,0,0,0.019531249999999993,106.58203124999999,0)" xlink:href="#s"/></g></defs></g></svg>