<svg xmlns="http://www.w3.org/2000/svg" xmlns:xlink="http://www.w3.org/1999/xlink" xmlns:lucid="lucid" width="716.18" height="460"><g transform="translate(-420 -240)" lucid:page-tab-id="83nw6S_2_vqg"><path d="M440 459.33c0-3.3 2.7-6 6-6h428c3.3 0 6 2.7 6 6V534c0 3.3-2.7 6-6 6H446c-3.3 0-6-2.7-6-6z" stroke="#000" stroke-opacity="0" stroke-width="3" fill="#c1e4f7"/><path d="M460 471.18c0-3.32 2.7-6 6-6h80.06c3.3 0 6 2.68 6 6v50.98c0 3.3-2.7 6-6 6H466c-3.3 0-6-2.7-6-6zM560 471.18c0-3.32 2.7-6 6-6h80.06c3.3 0 6 2.68 6 6v50.98c0 3.3-2.7 6-6 6H566c-3.3 0-6-2.7-6-6zM660 471.18c0-3.32 2.7-6 6-6h80.06c3.3 0 6 2.68 6 6v50.98c0 3.3-2.7 6-6 6H666c-3.3 0-6-2.7-6-6z" stroke="#000" stroke-opacity="0" stroke-width="3" fill="#2a96f4"/><use xlink:href="#a" transform="matrix(1,0,0,1,665,470.17532276752905) translate(32.24074074074074 31.02777777777778)"/><path d="M760 471.18c0-3.32 2.7-6 6-6h80.06c3.3 0 6 2.68 6 6v50.98c0 3.3-2.7 6-6 6H766c-3.3 0-6-2.7-6-6z" stroke="#000" stroke-opacity="0" stroke-width="3" fill="#2a96f4"/><use xlink:href="#a" transform="matrix(1,0,0,1,765,470.17532276752905) translate(32.24074074074074 31.02777777777778)"/><path d="M479.04 416c0-3.3 2.7-6 6-6H527c3.33 0 6 2.7 6 6v31.33c0 3.32-2.67 6-6 6h-41.96c-3.3 0-6-2.68-6-6z" stroke="#000" stroke-opacity="0" stroke-width="3" fill="#fff" fill-opacity="0"/><use xlink:href="#b" transform="matrix(1,0,0,1,484.04475894294353,415) translate(15.827160493827162 22.02777777777778)"/><path d="M580 416c0-3.3 2.7-6 6-6h41.97c3.3 0 6 2.7 6 6v31.33c0 3.32-2.7 6-6 6H586c-3.3 0-6-2.68-6-6z" stroke="#000" stroke-opacity="0" stroke-width="3" fill="#fff" fill-opacity="0"/><use xlink:href="#c" transform="matrix(1,0,0,1,585,415) translate(15.827160493827162 22.02777777777778)"/><path d="M679.04 416c0-3.3 2.7-6 6-6H727c3.33 0 6 2.7 6 6v31.33c0 3.32-2.67 6-6 6h-41.96c-3.3 0-6-2.68-6-6z" stroke="#000" stroke-opacity="0" stroke-width="3" fill="#fff" fill-opacity="0"/><use xlink:href="#d" transform="matrix(1,0,0,1,684.0447589429435,415) translate(15.827160493827162 22.02777777777778)"/><path d="M780 416c0-3.3 2.7-6 6-6h41.97c3.3 0 6 2.7 6 6v31.33c0 3.32-2.7 6-6 6H786c-3.3 0-6-2.68-6-6z" stroke="#000" stroke-opacity="0" stroke-width="3" fill="#fff" fill-opacity="0"/><use xlink:href="#e" transform="matrix(1,0,0,1,785,415) translate(15.827160493827162 22.02777777777778)"/><path d="M620 306c0-3.3 2.7-6 6-6h428c3.3 0 6 2.7 6 6v68c0 3.3-2.7 6-6 6H626c-3.3 0-6-2.7-6-6z" stroke="#000" stroke-opacity="0" stroke-width="3" fill="#ffeca9"/><path d="M640 316.93c0-3.3 2.7-6 6-6h80.06c3.3 0 6 2.7 6 6v46.14c0 3.3-2.7 6-6 6H646c-3.3 0-6-2.7-6-6z" stroke="#000" stroke-opacity="0" stroke-width="3" fill="#fcc438"/><use xlink:href="#f" transform="matrix(1,0,0,1,645,315.9310671700269) translate(35.32716049382716 30.02777777777778)"/><path d="M740 316.93c0-3.3 2.7-6 6-6h80.06c3.3 0 6 2.7 6 6v46.14c0 3.3-2.7 6-6 6H746c-3.3 0-6-2.7-6-6z" stroke="#000" stroke-opacity="0" stroke-width="3" fill="#fcc438"/><use xlink:href="#g" transform="matrix(1,0,0,1,745,315.9310671700269) translate(29.154320987654323 30.02777777777778)"/><path d="M840 316.93c0-3.3 2.7-6 6-6h80.06c3.3 0 6 2.7 6 6v46.14c0 3.3-2.7 6-6 6H846c-3.3 0-6-2.7-6-6z" stroke="#000" stroke-opacity="0" stroke-width="3" fill="#fcc438"/><use xlink:href="#h" transform="matrix(1,0,0,1,845,315.9310671700269) translate(29.154320987654323 30.02777777777778)"/><path d="M940 316.93c0-3.3 2.7-6 6-6h80.06c3.3 0 6 2.7 6 6v46.14c0 3.3-2.7 6-6 6H946c-3.3 0-6-2.7-6-6z" stroke="#000" stroke-opacity="0" stroke-width="3" fill="#fcc438"/><use xlink:href="#i" transform="matrix(1,0,0,1,945,315.9310671700269) translate(35.32716049382716 30.02777777777778)"/><path d="M659.04 266c0-3.3 2.7-6 6-6H707c3.33 0 6 2.7 6 6v28c0 3.3-2.67 6-6 6h-41.96c-3.3 0-6-2.7-6-6z" stroke="#000" stroke-opacity="0" stroke-width="3" fill="#fff" fill-opacity="0"/><use xlink:href="#b" transform="matrix(1,0,0,1,664.0447589429435,265) translate(15.827160493827162 19.65277777777778)"/><path d="M760 266c0-3.3 2.7-6 6-6h41.97c3.3 0 6 2.7 6 6v28c0 3.3-2.7 6-6 6H766c-3.3 0-6-2.7-6-6z" stroke="#000" stroke-opacity="0" stroke-width="3" fill="#fff" fill-opacity="0"/><use xlink:href="#c" transform="matrix(1,0,0,1,765,265) translate(15.827160493827162 19.65277777777778)"/><path d="M859.04 266c0-3.3 2.7-6 6-6H907c3.33 0 6 2.7 6 6v28c0 3.3-2.67 6-6 6h-41.96c-3.3 0-6-2.7-6-6z" stroke="#000" stroke-opacity="0" stroke-width="3" fill="#fff" fill-opacity="0"/><use xlink:href="#d" transform="matrix(1,0,0,1,864.0447589429435,265) translate(15.827160493827162 19.65277777777778)"/><path d="M960 266c0-3.3 2.7-6 6-6h41.97c3.3 0 6 2.7 6 6v28c0 3.3-2.7 6-6 6H966c-3.3 0-6-2.7-6-6z" stroke="#000" stroke-opacity="0" stroke-width="3" fill="#fff" fill-opacity="0"/><use xlink:href="#e" transform="matrix(1,0,0,1,965,265) translate(15.827160493827162 19.65277777777778)"/><path d="M676.18 606c0-3.3 2.7-6 6-6h428c3.3 0 6 2.7 6 6v68c0 3.3-2.7 6-6 6h-428c-3.3 0-6-2.7-6-6z" stroke="#000" stroke-opacity="0" stroke-width="3" fill="#f9d2de"/><path d="M696.18 616.93c0-3.3 2.7-6 6-6h80.06c3.3 0 6 2.7 6 6v46.14c0 3.3-2.7 6-6 6h-80.06c-3.3 0-6-2.7-6-6z" stroke="#000" stroke-opacity="0" stroke-width="3" fill="#de5f85"/><use xlink:href="#f" transform="matrix(1,0,0,1,701.1790366367923,615.9310671700268) translate(35.32716049382716 30.02777777777778)"/><path d="M796.18 616.93c0-3.3 2.7-6 6-6h80.06c3.3 0 6 2.7 6 6v46.14c0 3.3-2.7 6-6 6h-80.06c-3.3 0-6-2.7-6-6z" stroke="#000" stroke-opacity="0" stroke-width="3" fill="#de5f85"/><use xlink:href="#g" transform="matrix(1,0,0,1,801.1790366367923,615.9310671700268) translate(29.154320987654323 30.02777777777778)"/><path d="M896.18 616.93c0-3.3 2.7-6 6-6h80.06c3.3 0 6 2.7 6 6v46.14c0 3.3-2.7 6-6 6h-80.06c-3.3 0-6-2.7-6-6z" stroke="#000" stroke-opacity="0" stroke-width="3" fill="#de5f85"/><use xlink:href="#h" transform="matrix(1,0,0,1,901.1790366367923,615.9310671700268) translate(29.154320987654323 30.02777777777778)"/><path d="M996.18 616.93c0-3.3 2.7-6 6-6h80.06c3.3 0 6 2.7 6 6v46.14c0 3.3-2.7 6-6 6h-80.06c-3.3 0-6-2.7-6-6z" stroke="#000" stroke-opacity="0" stroke-width="3" fill="#de5f85"/><use xlink:href="#i" transform="matrix(1,0,0,1,1001.1790366367923,615.9310671700268) translate(35.32716049382716 30.02777777777778)"/><path d="M715.22 566c0-3.3 2.7-6 6-6h41.97c3.3 0 6 2.7 6 6v28c0 3.3-2.7 6-6 6H721.2c-3.3 0-6-2.7-6-6z" stroke="#000" stroke-opacity="0" stroke-width="3" fill="#fff" fill-opacity="0"/><use xlink:href="#b" transform="matrix(1,0,0,1,720.2237955797358,565) translate(15.827160493827162 19.65277777777778)"/><path d="M816.18 566c0-3.3 2.7-6 6-6h41.97c3.3 0 6 2.7 6 6v28c0 3.3-2.7 6-6 6h-41.97c-3.3 0-6-2.7-6-6z" stroke="#000" stroke-opacity="0" stroke-width="3" fill="#fff" fill-opacity="0"/><use xlink:href="#c" transform="matrix(1,0,0,1,821.1790366367923,565) translate(15.827160493827162 19.65277777777778)"/><path d="M915.22 566c0-3.3 2.7-6 6-6h41.97c3.3 0 6 2.7 6 6v28c0 3.3-2.7 6-6 6H921.2c-3.3 0-6-2.7-6-6z" stroke="#000" stroke-opacity="0" stroke-width="3" fill="#fff" fill-opacity="0"/><use xlink:href="#d" transform="matrix(1,0,0,1,920.2237955797358,565) translate(15.827160493827162 19.65277777777778)"/><path d="M1016.18 566c0-3.3 2.7-6 6-6h41.97c3.3 0 6 2.7 6 6v28c0 3.3-2.7 6-6 6h-41.97c-3.3 0-6-2.7-6-6z" stroke="#000" stroke-opacity="0" stroke-width="3" fill="#fff" fill-opacity="0"/><use xlink:href="#e" transform="matrix(1,0,0,1,1021.1790366367924,565) translate(15.827160493827162 19.65277777777778)"/><path d="M506.03 463.18V346c0-3.3 2.7-6 6-6h85.23" stroke="#5e5e5e" stroke-width="4" fill="none"/><path d="M508.03 465.18h-4v-2.06h4" fill="#5e5e5e"/><path d="M613.53 340l-14.27 4.64v-9.28z" stroke="#5e5e5e" stroke-width="4" fill="#5e5e5e"/><path d="M606.03 530.16V634c0 3.3 2.7 6 6 6h41.4" stroke="#5e5e5e" stroke-width="4" fill="none"/><path d="M608.03 530.2h-4v-2.04h4" fill="#5e5e5e"/><path d="M669.7 640l-14.26 4.64v-9.28z" stroke="#5e5e5e" stroke-width="4" fill="#5e5e5e"/><defs><path fill="#fff" d="M24 0v-54h51V0H24" id="j"/><g id="a"><use transform="matrix(0.06172839506172839,0,0,0.06172839506172839,0,0)" xlink:href="#j"/><use transform="matrix(0.06172839506172839,0,0,0.06172839506172839,6.172839506172839,0)" xlink:href="#j"/><use transform="matrix(0.06172839506172839,0,0,0.06172839506172839,12.345679012345679,0)" xlink:href="#j"/></g><path fill="#333" d="M101-251c68 0 84 54 84 127C185-50 166 4 99 4S15-52 14-124c-1-75 17-127 87-127zm-1 216c37-5 36-46 36-89s4-89-36-89c-39 0-36 45-36 89 0 43-3 85 36 89" id="k"/><use transform="matrix(0.06172839506172839,0,0,0.06172839506172839,0,0)" xlink:href="#k" id="b"/><path fill="#333" d="M23 0v-37h61v-169l-59 37v-38l62-41h46v211h57V0H23" id="l"/><use transform="matrix(0.06172839506172839,0,0,0.06172839506172839,0,0)" xlink:href="#l" id="c"/><path fill="#333" d="M182-182c0 78-84 86-111 141h115V0H12c-6-101 99-100 120-180 1-22-12-31-33-32-23 0-32 14-35 34l-49-3c5-45 32-70 84-70 51 0 83 22 83 69" id="m"/><use transform="matrix(0.06172839506172839,0,0,0.06172839506172839,0,0)" xlink:href="#m" id="d"/><path fill="#333" d="M128-127c34 4 56 21 59 58 7 91-148 94-172 28-4-9-6-17-7-26l51-5c1 24 16 35 40 36 23 0 39-12 38-36-1-31-31-36-65-34v-40c32 2 59-3 59-33 0-20-13-33-34-33s-33 13-35 32l-50-3c6-44 37-68 86-68 50 0 83 20 83 66 0 35-22 52-53 58" id="n"/><use transform="matrix(0.06172839506172839,0,0,0.06172839506172839,0,0)" xlink:href="#n" id="e"/><path fill="#fff" d="M182-182c0 78-84 86-111 141h115V0H12c-6-101 99-100 120-180 1-22-12-31-33-32-23 0-32 14-35 34l-49-3c5-45 32-70 84-70 51 0 83 22 83 69" id="o"/><use transform="matrix(0.06172839506172839,0,0,0.06172839506172839,0,0)" xlink:href="#o" id="f"/><path fill="#fff" d="M23 0v-37h61v-169l-59 37v-38l62-41h46v211h57V0H23" id="p"/><path fill="#fff" d="M101-251c68 0 84 54 84 127C185-50 166 4 99 4S15-52 14-124c-1-75 17-127 87-127zm-1 216c37-5 36-46 36-89s4-89-36-89c-39 0-36 45-36 89 0 43-3 85 36 89" id="q"/><g id="g"><use transform="matrix(0.06172839506172839,0,0,0.06172839506172839,0,0)" xlink:href="#p"/><use transform="matrix(0.06172839506172839,0,0,0.06172839506172839,12.345679012345679,0)" xlink:href="#q"/></g><g id="h"><use transform="matrix(0.06172839506172839,0,0,0.06172839506172839,0,0)" xlink:href="#o"/><use transform="matrix(0.06172839506172839,0,0,0.06172839506172839,12.345679012345679,0)" xlink:href="#q"/></g><path fill="#fff" d="M128-127c34 4 56 21 59 58 7 91-148 94-172 28-4-9-6-17-7-26l51-5c1 24 16 35 40 36 23 0 39-12 38-36-1-31-31-36-65-34v-40c32 2 59-3 59-33 0-20-13-33-34-33s-33 13-35 32l-50-3c6-44 37-68 86-68 50 0 83 20 83 66 0 35-22 52-53 58" id="r"/><use transform="matrix(0.06172839506172839,0,0,0.06172839506172839,0,0)" xlink:href="#r" id="i"/></defs></g></svg>